<?xml version="1.0" encoding="UTF-8"?>
<svg version="1.0" width="250" height="240" viewBox="90 95 220 210" xmlns="http://www.w3.org/2000/svg">
  <circle cx="200" cy="200" r="80" fill="#f9fbfa"/>
  <path d="M191.2 104.073c-5.17.15-9.94.393-10.6.54-.66.147-2.91.427-5 .623-8.226.772-10.243 1.038-11.326 1.492-.619.26-1.824.472-2.676.472-.853 0-1.662.18-1.798.4-.136.22-1.122.4-2.19.4-1.069 0-2.003.179-2.077.398-.073.219-.943.509-1.933.645-.99.136-2.103.407-2.474.602-.37.195-1.125.355-1.676.355-.552 0-1.114.18-1.25.4-.136.22-.822.406-1.524.413-.702.007-1.625.277-2.052.6-.428.323-1.182.587-1.677.587-.495 0-1.011.18-1.147.4-.136.22-.777.4-1.424.4-.647 0-1.176.18-1.176.4 0 .22-.198.4-.44.4-.241 0-1.096.288-1.9.641-.803.352-1.82.782-2.26.956-2.213.871-7.8 3.791-7.8 4.077 0 .179-.36.326-.8.326-.44 0-.8.152-.8.337 0 .185-.63.676-1.4 1.091-.77.415-1.4.893-1.4 1.063 0 .17-.165.309-.366.309-.827 0-7.234 6.219-7.234 7.022 0 .119-.45.633-1 1.143s-1 1.221-1 1.581c0 .36-.18.654-.4.654-.22 0-.4.257-.4.571 0 .315-.228.81-.506 1.1-.765.799-3.494 6.453-3.494 7.24 0 .379-.18.689-.4.689-.22 0-.4.428-.4.951 0 .523-.27 1.175-.6 1.449-.33.274-.6 1.016-.6 1.649s-.16 1.151-.356 1.151c-.196 0-.452.585-.569 1.3-.396 2.415-1.208 5.1-1.542 5.1-.183 0-.333.709-.333 1.576 0 .867-.18 1.688-.4 1.824-.22.136-.406 1.002-.414 1.924-.008.922-.272 2.126-.586 2.676-.314.55-.578 1.844-.586 2.876-.008 1.032-.194 1.988-.414 2.124-.22.136-.4 1.215-.4 2.398 0 1.182-.196 2.657-.436 3.276-.24.619-.537 2.887-.659 5.039-.123 2.152-.376 4.007-.564 4.123-.497.307-.439 36.456.059 36.764.22.136.4 1.549.4 3.14 0 1.59.27 3.929.6 5.195.33 1.267.6 3.275.6 4.461 0 1.186.18 2.268.4 2.404.22.136.406 1.182.413 2.324.007 1.187.264 2.408.6 2.852.323.428.587 1.542.587 2.477 0 .935.18 1.811.4 1.947.22.136.4.957.4 1.824 0 .867.164 1.576.365 1.576.201 0 .486.719.635 1.598.148.879.434 1.699.635 1.824.201.124.365.845.365 1.602 0 .757.18 1.376.4 1.376.22 0 .4.54.4 1.2 0 .66.172 1.2.382 1.2.21 0 .5.63.644 1.4.145.77.423 1.4.619 1.4.195 0 .355.364.355.808 0 .444.45 1.521 1 2.392s1.013 1.813 1.029 2.092c.016.279.378 1.048.805 1.708.426.66.884 1.515 1.017 1.9.133.385.401.7.596.7.194 0 .353.193.353.429 0 .235.225.679.5.986 1.133 1.263 1.5 1.768 1.506 2.068.018.892 9.175 8.917 10.174 8.917.15 0 .863.45 1.584 1 .722.55 1.595 1 1.94 1 .346 0 .689.135.763.3.193.435 2.698 1.7 3.365 1.7.313 0 .568.18.568.4 0 .22.428.4.951.4.523 0 1.175.27 1.449.6.274.33.926.6 1.449.6s.951.18.951.4c0 .22.429.4.954.4.525 0 1.47.269 2.1.598.63.328 1.461.598 1.846.6.385.001.7.182.7.402 0 .22.63.4 1.4.4.77 0 1.4.18 1.4.4 0 .22.518.4 1.151.4s1.798.27 2.587.6c.79.33 1.982.6 2.649.6s1.213.18 1.213.4c0 .22.979.4 2.176.4s2.28.167 2.407.372c.126.205 1.262.497 2.523.649 1.262.153 2.474.419 2.694.593.22.173 1.66.411 3.2.53 5.911.455 10.898.994 13.346 1.442 4.06.743 35.313.615 39.654-.162 1.87-.335 4.604-.613 6.076-.617 1.472-.004 2.788-.187 2.924-.407.136-.22 1.666-.4 3.4-.4s3.253-.162 3.376-.361c.122-.198 1.303-.486 2.624-.639 1.321-.153 2.502-.441 2.624-.639.123-.199 1.102-.361 2.176-.361s2.052-.161 2.174-.358c.121-.197.897-.45 1.723-.563 1.829-.25 4.852-1.045 5.798-1.526.382-.194 1.237-.353 1.9-.353.663 0 1.205-.164 1.205-.365 0-.201.72-.486 1.6-.635.88-.149 1.6-.434 1.6-.635s.529-.365 1.176-.365c.647 0 1.288-.18 1.424-.4.136-.22.584-.4.995-.4.411 0 1.018-.27 1.348-.6.33-.33.962-.6 1.405-.6.443 0 .916-.18 1.052-.4.136-.22.51-.4.832-.4.321 0 1.297-.45 2.168-1 .871-.55 1.858-1 2.192-1 .334 0 .608-.137.608-.305 0-.306 1.185-1.028 2.5-1.524.385-.145.7-.423.7-.618 0-.194.192-.353.427-.353.779 0 4.85-3.267 6.935-5.565a158.88 158.88 0 0 1 2.338-2.514c.605-.632 1.1-1.322 1.1-1.535 0-.212.136-.386.302-.386.167 0 .544-.544.838-1.209.294-.665.746-1.43 1.005-1.7.749-.783 3.913-7.448 4.457-9.391.138-.495.42-.9.625-.9.205 0 .373-.452.373-1.005 0-.553.156-1.318.346-1.7.645-1.293 1.353-3.489 1.548-4.799.107-.717.355-1.402.55-1.523.196-.121.356-.919.356-1.773 0-.854.175-1.661.388-1.793.214-.132.507-1.132.652-2.223.145-1.091.42-1.984.612-1.984.191 0 .348-1.069.348-2.376s.18-2.488.4-2.624c.22-.136.4-1.232.4-2.436 0-1.205.27-2.836.6-3.626.377-.902.6-2.726.6-4.907 0-1.909.184-3.655.408-3.879.884-.884.014-43.793-.916-45.227-.303-.467-.937-4.885-1.352-9.425-.116-1.265-.362-2.3-.547-2.3-.184 0-.459-.992-.611-2.205-.152-1.213-.434-2.304-.629-2.424-.194-.12-.353-.917-.353-1.771 0-.854-.16-1.652-.356-1.773-.195-.121-.443-.806-.55-1.523-.195-1.31-.903-3.506-1.548-4.799-.19-.382-.352-1.102-.359-1.6-.007-.498-.277-1.254-.6-1.681-.323-.428-.587-1.103-.587-1.5 0-.398-.18-.724-.4-.724-.22 0-.4-.347-.4-.771 0-.424-.63-1.98-1.4-3.457-.77-1.477-1.4-2.93-1.4-3.229 0-.299-.139-.543-.309-.543-.17 0-.665-.675-1.099-1.5-.435-.825-.971-1.719-1.191-1.986-.597-.724-1.075-1.346-2.394-3.114-1.806-2.424-4.215-4.642-7.607-7.006-2.803-1.954-3.5-2.384-4.3-2.652-.385-.13-.7-.394-.7-.589 0-.194-.36-.353-.8-.353-.44 0-.8-.18-.8-.4 0-.22-.338-.4-.751-.4s-.975-.27-1.249-.6c-.274-.33-.836-.6-1.249-.6-.413 0-.751-.18-.751-.4 0-.22-.439-.4-.976-.4-.537 0-1.079-.166-1.205-.369-.125-.203-.766-.488-1.424-.632-.657-.144-1.195-.428-1.195-.631 0-.202-.529-.368-1.176-.368-.647 0-1.288-.18-1.424-.4-.136-.22-.552-.401-.924-.402-.372-.002-1.192-.272-1.822-.6-.63-.329-1.575-.598-2.1-.598-.525 0-.954-.18-.954-.4 0-.22-.709-.4-1.576-.4-.867 0-1.675-.159-1.795-.354-.121-.194-1.027-.475-2.015-.623-.987-.148-1.9-.439-2.028-.646-.128-.207-1.112-.377-2.186-.377-1.074 0-2.048-.155-2.165-.343-.117-.189-1.318-.444-2.67-.567-1.352-.122-2.653-.418-2.891-.656-.239-.239-1.622-.434-3.074-.434-1.452 0-2.811-.167-3.02-.372-.209-.204-1.91-.455-3.78-.557-1.87-.102-6.01-.374-9.2-.604-8.39-.606-14.569-.703-25.2-.394m20.4 42.718c7.564.399 14 1.165 14 1.666 0 .189 1.069.343 2.376.343s2.473.156 2.591.347c.118.191 1.068.443 2.111.561 1.043.117 1.962.411 2.042.653.081.241.751.439 1.49.439.738 0 1.454.18 1.59.4.136.22.766.4 1.4.4.634 0 1.255.166 1.381.369.125.203.766.488 1.424.632.657.144 1.195.428 1.195.631 0 .202.405.381.9.397.495.016 1.44.374 2.1.796.66.421 1.47.888 1.8 1.038 3.176 1.438 9.2 7.541 9.2 9.32 0 .229.18.417.4.417.22 0 .4.222.4.494 0 .421 1.187 3.139 2.445 5.601.195.382.361 1.102.368 1.6.007.498.277 1.254.6 1.681.323.428.587 1.272.587 1.877s.18 1.211.4 1.347c.22.136.4 1.011.4 1.944s.181 1.877.403 2.099c1.796 1.796 1.772 35.054-.026 35.69-.208.074-.377 1.008-.377 2.077 0 1.068-.18 2.054-.4 2.19-.22.136-.4.845-.4 1.575s-.27 1.551-.6 1.825c-.33.274-.6 1.016-.6 1.649s-.18 1.151-.4 1.151c-.22 0-.4.39-.4.866 0 1.052-1.228 3.934-1.677 3.934-.178 0-.323.298-.323.662 0 .364-.45 1.252-1 1.974-.55.721-1 1.411-1 1.533 0 .417-3.779 4.631-4.153 4.631-.113 0-.691.45-1.285 1-.593.55-1.323 1-1.62 1-.298 0-.542.16-.542.357 0 .196-.45.469-1 .607s-1 .428-1 .644c0 .215-.272.392-.605.392-.609 0-.94.136-3.257 1.343-.694.361-1.549.657-1.9.657s-.644.135-.652.3c-.007.165-.052 4.363-.1 9.329-.099 10.352-.105 10.371-3.265 10.371-1.27 0-2.326-.309-3.421-1-.871-.55-1.768-1-1.992-1-.224 0-.41-.135-.413-.3-.002-.165-.722-.644-1.6-1.064-.877-.421-1.595-.916-1.595-1.1 0-.185-.298-.336-.662-.336-.364 0-1.252-.45-1.974-1-.721-.55-1.503-1-1.737-1-.235 0-.427-.18-.427-.4 0-.22-.276-.4-.614-.4-.557 0-2.494-1.045-2.986-1.612-.11-.126-.875-.544-1.7-.928-.825-.383-1.5-.869-1.5-1.079 0-.209-.36-.381-.8-.381-.44 0-.802-.135-.805-.3-.002-.165-.722-.644-1.6-1.064-.877-.421-1.595-.929-1.595-1.13 0-.211-1.475-.26-3.5-.116-6.894.491-25.199.055-25.88-.616-.209-.206-1.559-.375-3-.376-1.541-.002-3.092-.249-3.766-.6-.63-.329-2.025-.598-3.1-.598-1.075 0-1.954-.18-1.954-.4 0-.22-.765-.406-1.7-.413-.935-.007-2.049-.277-2.476-.6-.428-.323-1.195-.587-1.706-.587-.511 0-1.241-.165-1.623-.367-.382-.201-1.73-.668-2.994-1.037-1.265-.368-2.4-.833-2.524-1.033-.123-.2-.574-.363-1.001-.363-.427 0-.776-.18-.776-.4 0-.22-.338-.4-.751-.4s-.975-.27-1.249-.6c-.274-.33-.746-.6-1.049-.6-.303 0-.551-.18-.551-.4 0-.22-.244-.4-.542-.4-.297 0-1.027-.45-1.62-1-.594-.55-1.207-1-1.364-1-.156 0-.602-.424-.991-.942a44.56 44.56 0 0 0-1.895-2.272c-.653-.731-1.188-1.553-1.188-1.825s-.164-.554-.364-.628c-.523-.191-3.636-6.339-3.636-7.18 0-.388-.18-.817-.4-.953-.22-.136-.4-.777-.4-1.424 0-.647-.172-1.176-.382-1.176-.21 0-.49-.675-.622-1.5s-.41-1.813-.618-2.195c-.208-.382-.378-1.406-.378-2.276 0-.87-.18-1.693-.4-1.829-.22-.136-.4-1.198-.4-2.36s-.268-2.996-.596-4.076c-.854-2.818-.854-20.31 0-23.128.328-1.08.596-2.824.596-3.876s.18-2.024.4-2.16c.22-.136.4-1.126.4-2.2 0-1.074.156-2.049.347-2.168.192-.118.464-.938.605-1.823.142-.885.435-1.609.653-1.609.217 0 .395-.63.395-1.4 0-.77.18-1.4.4-1.4.22 0 .4-.264.4-.586 0-.724 1.289-3.565 1.7-3.747.165-.074.3-.374.3-.668 0-.688 1.308-2.993 1.7-2.996.165-.002.3-.182.3-.4 0-1.239 6.56-7.203 7.923-7.203.209 0 .603-.27.877-.6.274-.33.836-.6 1.249-.6.413 0 .751-.18.751-.4 0-.22.362-.4.805-.4.443 0 1.118-.168 1.5-.374 1.895-1.021 3.507-1.626 4.333-1.626.503 0 1.026-.18 1.162-.4.136-.22.732-.406 1.324-.414.592-.008 1.526-.272 2.076-.586.55-.314 1.574-.578 2.276-.586.702-.008 1.388-.194 1.524-.414.136-.22 1.302-.4 2.59-.4 1.289 0 2.403-.164 2.477-.364.208-.567 6.658-1.281 14.201-1.572 3.777-.145 7.017-.416 7.2-.603.182-.186 2.222-.222 4.532-.079 2.31.143 7.17.417 10.8.609m-43.413 47.2c-6.008 3.851-3.534 12.909 3.526 12.909 7.011 0 9.815-8.122 4.309-12.483-1.932-1.53-5.786-1.739-7.835-.426m29.002-.113c-6.118 4.193-3.665 13.002 3.622 13.002 7.229 0 9.668-9.04 3.503-12.985-1.474-.944-5.758-.954-7.125-.017m26.77.628c-3.021 2.714-3.678 6.054-1.781 9.059 4.747 7.519 16.177 1.404 12.37-6.618-1.858-3.915-7.5-5.215-10.589-2.441m-89.844 135.461" fill="#16c018"/>
</svg>
